# xmcd
# 
# Track frame offsets:
#     150
#     15293
#     29105
#     43691
#     57006
#     69494
#     84865
#     97969
#     109651
#     122177
#     135061
#     148887
#     160005
#     174689
#     187702
#     201095
#     214145
#     227081
#     239159
#     252741
# 
# Disc length: 3530
# 
# Revision: 2
# Processed by: cddbd v1.5.2PL0 Copyright (c) Steve Scherf et al.
# Submitted via: BonkEnc v1.0.8
# 
DISCID=130dc814
DTITLE=200 Blues Songs - Goin' Mad Blues [CD 8)
DYEAR=0
DGENRE=Blues
TTITLE0=Big Joe Turner - Little Bitty Gal's Blues
TTITLE1=Big Bill Broonzy - Mountain Blues
TTITLE2=Bessie Smith - Frosty Morning Blues
TTITLE3=Leadbelly - See See Rider
TTITLE4=Arthur 'Big Boy' Crudup - No More Lovers
TTITLE5=Blind John Davis - C. C. Rider
TTITLE6=Kokomo Arnold - Buddies Brown Blues
TTITLE7=Blind Boy Fuller - Dealing With The Devil
TTITLE8=John Lee 'Sonny Boy' Williamson - I Have Got To Go
TTITLE9=Jimmy Yancey - Yancey Stomp
TTITLE10=Scrapper Blackwell - Kokomo Blues
TTITLE11=Sleepy John Estes - Tell Me How About It (Mr. Tom's Blues)
TTITLE12=The Mississippi Sheiks - Sitting On Top Of The World
TTITLE13=Robert Johnson - Come On In My Kitchen
TTITLE14=Mississippi John Hurt - Stack O'Lee
TTITLE15=Memphis Slim - This Life I'm Living
TTITLE16=Big Joe Williams - Crawling King Snake
TTITLE17=Lightnin' Hopkins - Someday Baby
TTITLE18=Blind Willie McTell - My Baby's Gone
TTITLE19=Blind Boy Fuller and Sonny Terry - You Got To Have Your Dollar
EXTD=
EXTT0=
EXTT1=
EXTT2=
EXTT3=
EXTT4=
EXTT5=
EXTT6=
EXTT7=
EXTT8=
EXTT9=
EXTT10=
EXTT11=
EXTT12=
EXTT13=
EXTT14=
EXTT15=
EXTT16=
EXTT17=
EXTT18=
EXTT19=
PLAYORDER=
